<svg xmlns="http://www.w3.org/2000/svg" width="1000" height="1000" viewBox="0 0 264.58333 264.58334"><circle cx="132.29166" cy="132.29167" r="132.11478" style="opacity:.993;fill:#bdb092;stroke:none;stroke-width:.353792;stroke-linecap:round;stroke-linejoin:round;fill-opacity:1"/><g style="font-style:normal;font-variant:normal;font-weight:900;font-stretch:normal;font-size:240.16px;font-family:&quot;Noto Sans CJK KR&quot;;letter-spacing:0;word-spacing:0;fill:#fff;fill-opacity:1;stroke:none;stroke-width:.400267"><path d="M90.023 212.505c4.564.24 11.048.24 17.772-.48 21.134-1.441 39.867-8.646 53.556-21.374 16.33-15.37 27.138-39.147 27.138-72.529 0-37.945-19.453-66.524-55.717-66.524-33.382 0-56.438 25.937-56.438 55.717 0 28.82 20.174 48.272 47.312 48.272 14.89 0 26.177-5.043 34.103-13.689h.48c-2.882 14.89-9.847 26.658-20.174 34.823-8.405 6.965-19.933 11.048-31.7 12.008-6.965.72-11.528.96-16.332.48zm41.308-138.812c18.973 0 27.138 18.012 26.898 39.146 0 4.082-.72 6.484-1.681 8.405-4.563 7.205-13.209 12.969-25.217 12.969-16.33 0-25.697-12.488-25.697-28.58 0-18.732 10.567-31.94 25.457-31.94z" style="font-style:normal;font-variant:normal;font-weight:600;font-stretch:normal;font-size:240.16px;font-family:&quot;Myriad Pro&quot;;text-align:center;text-anchor:middle;fill:#fff;fill-opacity:1;stroke-width:.400267"/></g></svg>